# xmcd
#
# Track frame offsets:
#	150
#	20878
#	37787
#	50177
#	66321
#	82705
#	98162
#	111782
#	127475
#	144575
#	159022
#	172760
#	190116
#	202684
#	219317
#	237225
#	255853
#	271955
#	287907
#	300941
#	316014
#	332600
#
# Disc length: 4662 seconds
#
# Revision: 1
# Processed by: cddbd v1.5.2PL0 Copyright (c) Steve Scherf et al.
# Submitted via: audiograbber 1.83.01
#
DISCID=23123416
DTITLE=Various Artist - CDX 455
DYEAR=2008
DGENRE=Country
TTITLE0=Sugarland - Already gone
TTITLE1=Rascal Flatts - Bob that head
TTITLE2=Kenny Chesney - Everybody wants to go to heaven
TTITLE3=Josh Turner - Everything is fine
TTITLE4=Randy Rogers Band - In my arms instead
TTITLE5=Tim McGraw - Let it go
TTITLE6=Kristy Lee Cook - 15 minutes of shame
TTITLE7=Miranda Lambert - More like her
TTITLE8=Trace Adkins - Muddy water
TTITLE9=Josh Gracin - Unbelievable (Ann Marie)
TTITLE10=Ricochet - It had to be me
TTITLE11=Mark Chesnutt - (Come on in) the whiskey's fine
TTITLE12=Todd Eliott - Bring it on
TTITLE13=Bluefield - Drive away
TTITLE14=Deanne Moore - How you say goodbye
TTITLE15=Bulls Gap - Keep on believing
TTITLE16=Thompson Square - Not far enough
TTITLE17=Chad Brock - Put a redneck in the White House
TTITLE18=Nikki Britt - Stay in my car
TTITLE19=Charley Austin - That's how I was raised
TTITLE20=Rebel Hearts - Wrangler walk
TTITLE21=Zona Jones - You should've seen her this morning
EXTD=
EXTT0=
EXTT1=
EXTT2=
EXTT3=
EXTT4=
EXTT5=
EXTT6=
EXTT7=
EXTT8=
EXTT9=
EXTT10=
EXTT11=
EXTT12=
EXTT13=
EXTT14=
EXTT15=
EXTT16=
EXTT17=
EXTT18=
EXTT19=
EXTT20=
EXTT21=
PLAYORDER=
